/* XPM */
static char *donu128[] = {
/* columns rows colors chars-per-pixel */
"128 128 89 1 ",
"  c #070C0D",
". c #0C0C0D",
"X c #0F0E10",
"o c #100F10",
"O c #0D1011",
"+ c #0F1818",
"@ c #111011",
"# c #1B1714",
"$ c #1C1817",
"% c #131B1B",
"& c #1D1B1C",
"* c #380D0F",
"= c #360E10",
"- c #241B1C",
"; c #2B1B1D",
": c #311113",
"> c #341C1D",
", c #3D1C1E",
"< c #1E1E22",
"1 c #1F273C",
"2 c #202126",
"3 c #22242D",
"4 c #242631",
"5 c #242835",
"6 c #23293B",
"7 c #4E0E11",
"8 c #500D10",
"9 c #441113",
"0 c #431C1E",
"q c #4C1C1F",
"w c #5D1215",
"e c #531C1F",
"r c #5C1C1F",
"t c #6D0F13",
"y c #710E13",
"u c #621215",
"i c #631A1D",
"p c #5D1C20",
"a c #641D20",
"s c #6E1D20",
"d c #721D21",
"f c #7A1D21",
"g c #1F2A45",
"h c #222B42",
"j c #292F41",
"k c #232F4B",
"l c #24304E",
"z c #2B3249",
"x c #243355",
"c c #2F3A57",
"v c #253459",
"b c #313E5F",
"n c #323F61",
"m c #354369",
"M c #364772",
"N c #3A4D7D",
"B c #8D1B1F",
"V c #841D22",
"C c #8D1E22",
"Z c #931E22",
"A c #9E1E23",
"S c #A21E23",
"D c #AC1E24",
"F c #B51E24",
"G c #BA1E24",
"H c #C41E24",
"J c #CD1F25",
"K c #D31F26",
"L c #DC1F26",
"P c #E41F27",
"I c #E81F27",
"U c #F21F28",
"Y c #E02027",
"T c #EC2028",
"R c #3A4E81",
"E c #3D5184",
"W c #3E558C",
"Q c #3D5591",
"! c #40568E",
"~ c #425A95",
"^ c #435D9E",
"/ c #455FA0",
"( c #4661A4",
") c #4763A8",
"_ c #4967AE",
"` c #4967B0",
"' c #4A68B1",
"] c #4C6CBA",
"[ c None",
/* pixels */
"[[[[[[[[[[[[[[[[[[[[[[[[[[[[[[[[[[[[[[[[[[[[[[[[[[[[[[[[[[[[[[[[[[[[[[[[[[[[[[[[[[[[[[[[[[[[[[[[[[[[[[[[[[[[[[[[[[[[[[[[[[[[[[[[",
"[[[[[[[[[[[[[[[[[[[[[[[[[[[[[[[[[[[[[[[[[[[[[[[[[[[[[[[[[[[[[[[[[[[[[[[[[[[[[[[[[[[[[[[[[[[[[[[[[[[[[[[[[[[[[[[[[[[[[[[[[[[[[[[[",
"[[[[[[[[[[[[[[[[[[[[[[[[[[[[[[[[[[[[[[[[[[[[&&[[[[[[[[[[[[[[[[[[[[[[[[[[[[[[[[[[[&&&&[[[[[[[[[[[[[[[[[[[[[[[[[[[[[[[[[[[[[[[[[[[",
"[[[[[[[[[[[[[[[[[[[[[[[[[[[[[[[[[[[[[[[[[&&&&&&&&[[[[[[[[[[[[[[[[[[[[[[[[[[[[[&&&%<&&&&[[[[[[[[[[[[[[[[[[[[[[[[[[[[[[[[[[[[[[[[[",
"[[[[[[[[[[[[[[[[[[[[[[[[[[[[[[[[[[[[[[[[&&&&&&&<<&&[[[[[[[[[[[[[[[[[[[[[[[[[[&&<&&%+&&&<[[[[[[[[[[[[[[[[[[[[[[[[[[[[[[[[[[[[[[[[",
"[[[[[[[[[[[[[[[[[[[[[[[[[[[[[[[[[[[[[[[[&<&%--%%&&&&[[[[[[[[[[[[[[[[[[[[[[[&&&&&%-pp-%&&&[[[[[[[[[[[[[[[[[[[[[[[[[[[[[[[[[[[[[[[",
"[[[[[[[[[[[[[[[[[[[[[[[[[[[[[[[[[[[[[[[&&&%aJHC0%&&&&&[[[[[[[[[[[[[[[[[[[[&&&&%-fJPIG;&&&[[[[[[[[[[[[[[[[[[[[[[[[[[[[[[[[[[[[[[[",
"[[[[[[[[[[[[[[[[[[[[[[[[[[[[[[[[[[[[[[&&&%aPYPILA>%&&&&[[[[[[[[[[[[[[[[[[&&&&%pHIPLLID%&&&[[[[[[[[[[[[[[[[[[[[[[[[[[[[[[[[[[[[[[",
"[[[[[[[[[[[[[[[[[[[[[[[[[[[[[[[[[[[[[[&&&;KPLLLLPJp%&&&&[[[[[[[[[[[[[[[&&&&%-ZPPLLLLLPs%&&&[[[[[[[[[[[[[[[[[[[[[[[[[[[[[[[[[[[[[",
"[[[[[[[[[[[[[[[[[[[[[[[[[[[[[[[[[[[[[&&-%APLLLLLLPPC&%&&&&[[[[[[[[[[[[&&&&%,FPLLLLLLLPJ;&&&[[[[[[[[[[[[[[[[[[[[[[[[[[[[[[[[[[[[[",
"[[[[[[[[[[[[[[[[[[[[[[[[[[[[[[[[[[[[[&&%0PLLLLLLLLLPF>%&&&&[[[[[[[[[[&&&<%aKPLLLLLLLLLIf%&&[[[[[[[[[[[[[[[[[[[[[[[[[[[[[[[[[[[[[",
"[[[[[[[[[[[[[[[[[[[[[[[[[[[[[[[[[[[[&&&%APLLLLLLLLLLTJp%&&&&[[[[[[[[&&<%%VPPLLLLLLLLLLPH-&&&[[[[[[[[[[[[[[[[[[[[[[[[[[[[[[[[[[[[",
"[[[[[[[[[[[[[[[[[[[[[[[[[[[[[[[[[[[[&&&;JPLLLLLLLLLLLPPf%&<&&[[[[[[&&&%-SILLLLLLLLLLLLLY,%&&[[[[[[[[[[[[[[[[[[[[[[[[[[[[[[[[[[[[",
"[[[[[[[[[[[[[[[[[[[[[[[[[[[[[[[[[[[[&&&-JYLLLLLLLLLLLLLPZ&%&&&&&&&&&&%>GILLLLLLLLLLLLLPH-<&&[[[[[[[[[[[[[[[[[[[[[[[[[[[[[[[[[[[[",
"[[[[[[[[[[[[[[[[[[[[[[[[[[[[[[[[[[[[&<&%sILLLLLLLLLLLLLLYD>&&&&&&<&-&0JILLLLLLLLLLLLLPLq%&&&[[[[[[[[[[[[[[[[[[[[[[[[[[[[[[[[[[[[",
"[[[[[[[[[[[[[[[[[[[[[[[[[[[[[[[[[[[[[&&&%aLILLLLLLLLLLLLYTa%&&&%%%&&%pPLLLLLLLLLLLLPPF,%-&&[[[[[[[[[[[[[[[[[[[[[[[[[[[[[[[[[[[[[",
"[[[[[[[[[[[[[[[[[[[[[[[[[[[[[[[[[[[[[[&&&%,DLPLLLLLLLLLLYS&&&%>ia0%&&%VPLLLLLLLLLPIJs&%&&&[[[[[[[[[[[[[[[[[[[[[[[[[[[[[[[[[[[[[[",
"[[[[[[[[[[[[[[[[[[[[[[[[[[[[[[[[[[[[[[&&&&%%pSLILLLLLLLLY0%&%dKTILV&&%;JPLLLLLPPPFa-%&&&&[[[[[[[[[[[[[[[[[[[[[[[[[[[[[[[[[[[[[[[",
"[[[[[[[[[[[[[[[[[[[[[[[[[[[[[[[[[[[[[[[&&<&&%%0ZKPPLLLLYF&&%qYYLLPIa<&%AYLLYPPLSe&%&&&&&[[[[[[[[[[[[[[[[[[[[[[[[[[[[[[[[[[[[[[[[",
"[[[[[[[[[[[[[[[[[[[[[[[[[[[[[[[[[[[[[[[[[&&&&&%%;aFLIPLTZ%&%ATLLLLPF%&+fTTYYFs>%%&&&&&&[[[[[[[[[[[[[[[[[[[[[[[[[[[[[[[[[[[[[[[[[",
"[[[[[[[[[[[[[[[[[[[[[[[[[[[[[[[[[[[[[[[[[[[&&&&&&%&0VGYUZ+&%DTYYLPYK-&%aYGV0&+&&&&&&&[[[[[[[[[[[[[[[[[[[[[[[[[[[[[[[[[[[[[[[[[[[",
"[[[[[[[[[[[[[[[[[[[[[[[[[[[[[[[[[[[[[[[[[[[[[&&&&&&%%&0ds&&%CYKKKKLS%&&,0&%%&&&&&&[[[[[[[[[[[[[[[[[[[[[[[[[[[[[[[[[[[[[[[[[[[[[[",
"[[[[[[[[[[[[-&&&&&&&&&&&&&&&<&&&<&&&&&&&&&&&&&-<&&&&&&%+&&<&->>>>>>;&&&%%&&&&&&&&&&&&&&&<&&&&&&&&&&&&&&<&&&&&&&&&&&&[[[[[[[[[[[[",
"[[[[[[[[[[[[&&&&&&&&&&&&&&&&&&&&&&&&&&&&&&&&&&&&&&&&&&<&&&&&&%&%%&%&&&&&&&&&&<&&&&&&&&<&&&&&&&&&&&&&&&&&&&&&&&&&&&&<[[[[[[[[[[[[",
"[[[[[[[[[[[[&&&&&&&&&&&&&&&&&&&&&&&&&&&&&&&&&&&&&&&&&&&&&&&&&&&&&&&&&&<&&&&&&&&&<&&&&&&&&&&&&&&&&&&&&&&&&&&&&&&&&&&&[[[[[[[[[[[[",
"[[[[[[[[[[[[&&&&&&&&&&&&&-&&&&&&&&&&&&&&<&&&&&&&&&&&&&&<&&&&&&&&&&&<&&&&&&&&&&&&&&&&&&&&&&&&&&&&&&&&&&&&&&&&&&&&&&&&[[[[[[[[[[[[",
"[[[[[[[[[[[[<&&&&&&&&&&&&&&&&&&&&&&&&&&&$&&$&&&$&&&$&&&&&&&$&&&&&&&&&&&&&&&&$&&$&$&$&&$&$&&&&&&&&$$&&$&&&&&&&&&&&&&&[[[[[[[[[[[[",
"[[[[[[[[[[[[&&&&&&<<<<<<<<<<<<<<<<<<<<<<2<<<<2<<<<<2<&&&---;------------&&&<2<<2<<22<2<<<<2<<<<<222<<<2<<<&&&<&&&&&&[[[[[[[[[[[[",
"[[[[[[[[[[[[&&&&&#c)///(/(//////(//////(/((/((((((()!<&%iKHHHHHHHHHHHHJZ%&$N)/(///////(//////////(/(///(Rgxxx6&&&&&&[[[[[[[[[[[[",
"[[[[[[[[[[[[&&&&&#n]]''''''']']'''']']'''''''''''''](<&+dIYYYYYYPPPLYYIS%&$W]']']''']'''']''']]'''''']']Qxvvvh&&<&&&[[[[[[[[[[[[",
"[[[[[[[[[[[[&&&&&#n]''''''''''''''''''''''''_'''''''^<&+sILLYYLLLLLLYLPA%$&W]'''''''''''''''''''''''''']Qxvvvh$&&&&&[[[[[[[[[[[[",
"[[[[[[[[[[[[&&<&&#n]''''''''''''''''''''''''''''''''^&&%sPLLLLLLLLLLLLPS%&&W''''''''''''''''''''''_'''']Qxvvvh&&&&&-[[[[[[[[[[[[",
"[[[[[[[[[[[[&&&&&#b]'''_'''''''_''''''`''''_''''''''/<&%sYYLLLLLLLLLLLIA%&#!]_''''''''''''''''''''''_'''Qgvvvg$&&&&<[[[[[[[[[[[[",
"[[[[[[[[[[[[<&&&&#b]''''''_'''''''_'''''''''''''''''/&%%sTLLLLLLLLLLLLIA%&#!]'''_'''_'''_'''_'''''''''''Qxvvvh&&&&&&[[[[[[[[[[[[",
"[[[[[[[[[[[[&&&&&#b]'_'''''''_'''`''''`''''''''_''''/<&%sTLLLLLLLLLLLLYS%&$!]_'''''_'''_'''_'''_''''''']Qxvvvh&&&&&&[[[[[[[[[[[[",
"[[[[[[[[[[[[&&&&&#b]''''_'''''''''''''''_'''''''''']^<$%sYLLLLLLLLLLLLIA%&$!]__'''''''''''''''''''''''''Qlvxvh$&&&&&[[[[[[[[[[[[",
"[[[[[[[[[[[[&&&<&#b]'''''''_'''_''''`''''''_'_''''''/<%%sTLLLLLLLLLLLLIA%&#!]__''_'''_'''_''_''''_''''''Wxvvvh&&&&&&[[[[[[[[[[[[",
"[[[[[[[[[[[[&&&&&#b]''_'''''''''`_`'`'''_'''''''''''^&&%iTLLLLLLLLLLLLYA%&$W]'''''''''''''''''''''''''']Wxxvvh&&&&&&[[[[[[[[[[[[",
"[[[[[[[[[[[[&&&&&#b]'''''_'''_''``'''''''''''_''''']/&&+dTLLLLLLLLLLLLIA#&$!]_'''''''''''''''''`'''_''']Qxvvvh&&&&<&[[[[[[[[[[[[",
"[[[[[[[[[[[[&&&&&#b]_'''''''''''``'`''`'''''''''''''/<&%sTLLLLLLLLLLLLIA%&$W]'_'''_'''_'''_'''''_'''''']Wxvvvh$&&&&&[[[[[[[[[[[[",
"[[[[[[[[[[[[&&&&&#b]_'_''''_'''_''''''''''_'''_'''''(<&+dILLLLLLLLLLLLYA%&$!'''''''_'''_'''''''''''_''']!xxxvk$&&&&&[[[[[[[[[[[[",
"[[[[[[[[[[[[&&&&&#b]''''''''''''_''''`'''_''''''''''^<&%sILLLLLLLLLLLLYA%&$!]'''_'''''''''_'''''''''''''Wxvvvh&&&&&&[[[[[[[[[[[[",
"[[[[[[[[[[[[&&<&&#b]'''''_'''_''''''''''''_'''''''''^<&+sILLLLLLLLLLLLTA%&$W'''_'''''''''''''_''''''''']Wxxvvh&&<&&&[[[[[[[[[[[[",
"[[[[[[[[[[[[&&&&&#b]'_''''''''''''_''''''''''''_''']^<&+sILLLLLLLLLLLYPA%&$W]_''''_'''_'''_''''''_''''']Wxvvvh$&&&&&[[[[[[[[[[[[",
"[[[[[[[[[[[[&-&&&#b]'''''''_'''''''_'''`''''''''''''^<&+sILLLLLLLLLLLLPA%&$W]'''''''''''''''''''''''''''Wxvvvg$&&&&&[[[[[[[[[[[[",
"[[[[[[[[[[[[&&&&&#b]''''''''''''''''''''''''_'''''''^<&%sILLLLLLLLLLLLPA%&$W'''''''''_'''''''''''_''''']Qxvvvg$&&&-&[[[[[[[[[[[[",
"[[[[[[[[[[[[&<&&&#b]'''''''''''''''''''''`''''''''''(<&+sILLLLLYYLYLLYIS%&&W]'''''''''''''''''''''''''''Qxxvvh&&&&&&[[[[[[[[[[[[",
"[[[[[[[[[[[[&&&&&#b]````'_____'_`____``____''___`''_^<&%sPLLLKLLLKLLKLYA%&$W'`___'_''_____________''__''Rxxvvh$&&&&&[[[[[[[[[[[[",
"[[[[[[[[[[[[&&&&&&<6555555555555555555555555555555555&&&;,,,,,,,,,,,,,,>&&&355555555555555555555555555553<222<<&<&&&[[[[[[[[[[[[",
"[[[[[[[[[[[[&&&&&&&&$$$#$$$$$$$$$-$$$$$$$$$$$$$$$$$$$&&&&%%&%<%%%#&%%&&%&&&&$$$$$$$$$$$$$$$$$&$$$$$$$$$$&&&&&&&&&&&&[[[[[[[[[[[[",
"[[[[[[[[[[[[&&<&&&&&&&&&&&&&&&&&$&&&&&&&&&&&&&&&&&&&&&&&&&&&&&&&&&&&&&&&&&&&&&&&&&&&&&&&&&&&&&&&&&&&&&&&&&&&&&&&&&&&[[[[[[[[[[[[",
"[[[[[[[[[[[[&&&&&&&-&&&&&&&&&&&&&&&-&&&&&&&&&&&&&&&&&&&&&&&&&&&&&&&&&&&&&&&&&&&&&&&&&&&&&&&&&&&&&&&&&&&&&&&&&&&&&&&&[[[[[[[[[[[[",
"[[[[[[[[[[[[&&&&&&&&&&&&&&&&&&&&&&&&&&&&&&&&&&&&&&&&&&&&&&&&&&&$&&&&&&&&&&&&&&&&&&&&&&&&&&&&&&&&&&&&&&&&&&&&&-&&&&&&[[[[[[[[[[[[",
"[[[[[[[[[[[[&&&&&&<&&&&<&&&&&&&&&&&&&&&&&&&&&&&&&&&&&&&&$-&&&&&$&&&&&&&&&&&&&&&&&&&&&&&$&&&&&&&&&&&&&&&&&&&&&&&&&&&<[[[[[[[[[[[[",
"[[[[[[[[[[[[[[[[[&&&&&$6llklllxllkllklkklkklkklkllllh@@+:uwwwwwwrwwuwwu9+..6llzlkkkllllkllllkkkklllllkkkk&&&&&&[[[[[[[[[[[[[[[[[",
"[[[[[[[[[[[[[[[[[&&&&&&hvvvvvvvvvvvvvvvvvvvvvvvvvvvvl.. *yytttyytttytty8 . kvvvvvvvvvvvvvvvvvvvvvvvvvvvvx<&&&&&[[[[[[[[[[[[[[[[[",
"[[[[[[[[[[[[[[[[[&&&&&$hvvvxvxvvvvvxvvvvvvvvvvvvvxvvkO. :ytttttttttttty8...gvvxxvvvvvvvvvvvvvvvvvxvvvvvvx&&&&&&[[[[[[[[[[[[[[[[[",
"[[[[[[[[[[[[[[[[[&&&&&$M(/^^^^^Q^^^^Q((^Q(^^^^^^^^^^W&#+iJHHHHHHHHHHHHJB%$#N(^^^Q((^Q^^(Q(Q(Q/(Q^^/Wxvvvx<&&&&&[[[[[[[[[[[[[[[[[",
"[[[[[[[[[[[[[[[[[&&&&&$N]'']']'''''']''']'''']''']']/2&%dUYYYYYYPLLYPPTS%&$!]''']''']']']]'']]']''](xvvvx&&&&&&[[[[[[[[[[[[[[[[[",
"[[[[[[[[[[[[[[[[[&-&&&#N]'''''''''''''''''''''''''''/&&+iILLLLLLLLLLLLYA%&$!]''''''''''''''''''`'''^xvxvx<&&&&&[[[[[[[[[[[[[[[[[",
"[[[[[[[[[[[[[[[[[&&&&&#N]''''_'''''''''_''''`'''''''/<&%dTLLLLLLLLLLLLYA%&$!]'''''''''_''''''`'''`'^xvvvx&&&&&&[[[[[[[[[[[[[[[[[",
"[[[[[[[[[[[[[[[[[&&&&&#N]'''''''''''''''''`'_'''''']^<%%iTLLLLLLLLLLLLTA%&$W'''''''_''''''''''''``]^xvvvx&&&&&&[[[[[[[[[[[[[[[[[",
"[[[[[[[[[[[[[[[[[&&&&&$N]''''''''''''_'''''''''_''''^<&%dTLLLLLLLLLLLLTA%&$W''''_'''''''_'''`''`'']^xvvvx<&&&&&[[[[[[[[[[[[[[[[[",
"[[[[[[[[[[[[[[[[[<&&&&$N]'''''_'''''''''''''''''''''/&&%dTLLLLLLLLLLLYYA%&&!]''''''''_'''''''''''']Qxxvvv-&&&&&[[[[[[[[[[[[[[[[[",
"[[[[[[[[[[[[[[[[[&-&&&#N''''_'''''''''''_'''_'''''']/<$%sPLLLLLLLLLLLLPA#$$W]'_'''_'''''''_''''_'''^cxvvx&&&&&&[[[[[[[[[[[[[[[[[",
"[[[[[[[[[[[[[[[[[&&&&$#N]'''''''_''_''''''''''''''''^&&%sPLLLLLLLLLLLLIA%$$W]''''''''''_''''_''''']^xxvvx<&&&&&[[[[[[[[[[[[[[[[[",
"[[[[[[[[[[[[[[[[[&&&&&$N]'_'''_'''''_'_'''_'''_'''''/&&%sILLLLLLLLLLLLIA%&$W]'''''''_'''''''''_''']~xvxvx&&&&&&[[[[[[[[[[[[[[[[[",
"[[[[[[[[[[[[[[[[[<&&&&#N]'''''''''''''''''''''''''''/<$%sILLLLLLLLLLLLPA%&$W'_'''_'''''''_''''''_''/xvvvv-&&&&&[[[[[[[[[[[[[[[[[",
"[[[[[[[[[[[[[[[[[&&&&&$N]'''_'''''''''''''_'_'''''`'^<$%sILLLLLLLLLLLLPA%&#!]_'''_''''''''''_'''``'^vvvvx&$&&&&[[[[[[[[[[[[[[[[[",
"[[[[[[[[[[[[[[[[[&&&&&$N]'''''''_'_''_''''''''''''''^<&%sILLLLLLLLLLLLIA%&#!]'''''''''_''''''''_'`]^xvxvx<&&&&<[[[[[[[[[[[[[[[[[",
"[[[[[[[[[[[[[[[[[&&&&&#N]'''''_''_''''''_'''''_'''''^<$%sILLLLLLLLLLLLPA%&$!'''''''_''''_'''''''`''/vxvvx&&&&&&[[[[[[[[[[[[[[[[[",
"[[[[[[[[[[[[[[[[[&&&&$#N]''_''''''''''''''''''''''']/<$+sILLLLLLLLLLLLPA%&$!]'_''''''''''''_'_''`''^xvvvx<&&&&-[[[[[[[[[[[[[[[[[",
"[[[[[[[[[[[[[[[[[&&&&&$N]''''''''''_'''`''''''''''']/<%%dTYLLLLLLLLLLLPA%&$!''''_''''''''''''''''']^xvvvx<$&&&&[[[[[[[[[[[[[[[[[",
"[[[[[[[[[[[[[[[[[&&&&&$N''''''''_''''''''_'_''''''''/<&%iTYLLLLLLLLLLYIA%&#!]_'_''''_'_'_'''_''''`'^vxvvx<&&&&&[[[[[[[[[[[[[[[[[",
"[[[[[[[[[[[[[[[[[&&<&&#N]'''''''''''''''''_'_'''''`'^2$%sTLLLLLLLLLLLLIA%$$!]''''''''''''''_'''_'''/vvvvx&&&&&&[[[[[[[[[[[[[[[[[",
"[[[[[[[[[[[[[[[[[&&&&$#N]''''''_''`''''_'''''''_''''^&%%sYLLLLLLLLLLLLPA%&$!]'''''_'''''''''''''`''^xvxvx&&&&&&[[[[[[[[[[[[[[[[[",
"[[[[[[[[[[[[[[[[[&&-&&$N]''''_''''''`''_''_''_''''']/2$%sTLLLLLLLLLLLLPA%&#!'''_'''''''''_'''_'''']^xxvvx&$&&&&[[[[[[[[[[[[[[[[[",
"[[[[[[[[[[[[[[[[[&&&&&$N''''''''''`'''''''''''''''''^&&%sTLLLLLLLLLLLLPA%&#!]_''''_'_''''''''''''`'^xxvvx<&<&&&[[[[[[[[[[[[[[[[[",
"[[[[[[[[[[[[[[[[[&&&&&$N]''_''''_'''''''_'''''_'''''/&&%dTLLLLLLLLLLLLIA%&$!]_'''_'_'''_'''''''''']^vvvvx-&&&&&[[[[[[[[[[[[[[[[[",
"[[[[[[[[[[[[[[[[[&&&&$#N]'''''_'''_'''`'''''_'''''']/&%%iYLLLLLLLLLLLYPS%&$!]'''''''''''''_'''_'`''^xvxvx&&&&<&[[[[[[[[[[[[[[[[[",
"[[[[[[[[[[[[[[[[[&&&<&#N]''''''''_'''''_'''''_''''''/&%%sTKYLLLLLLLLLLPA%&$!]_''''''''''_''''''''''^xvvvx<&&&&&[[[[[[[[[[[[[[[[[",
"[[[[[[[[[[[[[[[[[&&&&&#N''''_'''''''''''''''''''''''/<&%sTLLLLLLLLLLLLPA%&$W]_'''_'''_'''''''''''''^vvxvx<&&&-&[[[[[[[[[[[[[[[[[",
"[[[[[[[[[[[[[[[[[&&&&&$N]''''''_'_''''''''''''''''''/&&%iTLLLLLLLLLLLLPA%&#W]_''''''''''''_''''''''^xvvvx&&&&&&[[[[[[[[[[[[[[[[[",
"[[[[[[[[[[[[[[[[[&&&&&$N]'''''''''''_'''''_''''_''']^<&%dYLLLLLLLLLLLLPA%-#W]_'_'''_''_''''''''''''^xvvvx&&&&&&[[[[[[[[[[[[[[[[[",
"[[[[[[[[[[[[[[[[[&&&&&#N]''''_'''''''_''''''_'''''''^2%+dTLLLLLLLLLLLLIA%&$W''_''''''_''_'''_''''''^vvvvx&&&<&&[[[[[[[[[[[[[[[[[",
"[[[[[[[[[[[[[[[[[&&&&$#N]_'''''''''''''''_'''''_''''/&&%iTLLLLLLLLLLLLPA%&$W]'''_''''''''''''''''''^xvxvx&&&&&&[[[[[[[[[[[[[[[[[",
"[[[[[[[[[[[[[[[[[&&&&&#N]''''''''_'''''_''_'''''''']^&&%dTLLLLLLLLLLLLIA%&$!]_'''''_''''''_'''_''''/xvvvx&&&&&&[[[[[[[[[[[[[[[[[",
"[[[[[[[[[[[[[[[[[<&&-&#N]'_'''_'''''''''_''''_''''''/<&%dTLLLLLLLLLLLLPA%-$!]_''''''''_''''''''''''/xvvvx2&&&&&[[[[[[[[[[[[[[[[[",
"[[[[[[[[[[[[[[[[[&&&&&#N]''`'''''''_'''_''''''_'''''(<$+iTLLLLLLLLLLLLPA%&$!'''''_'''__''__'_''''']Qvvvvx<&&&&<[[[[[[[[[[[[[[[[[",
"[[[[[[[[[[[[[[[[[&&&&&$N]`''``'`'''''''''''_''''''''^<&%sTLLLLLLLLLLLLPA%$#!]'''''''''_]'_''''''''](vvvvl<$&&&&[[[[[[[[[[[[[[[[[",
"[[[[[[[[[[[[[[[[[&&&&&$N]``''''''_'''_''''''''''''''/<&+sTLLLLLLLLLLLLPA%&$!]'''''''''''''''''_''''Qxvvvx<&&&&&[[[[[[[[[[[[[[[[[",
"[[[[[[[[[[[[[[[[[&&<&&$N]`'''`''''''''''_''''_''''']^<&%iTLLLLLLLLLLLLTA%&$W''''''_'''_''''_'''''''/vvvvl<&&<&&[[[[[[[[[[[[[[[[[",
"[[[[[[[[[[[[[[[[[&&&&-#N]`'''''''''_''''''''''_'''_'^<$%dTKYLLLLLLLLLLPA%&&W'''''''''''''''''''''']Qxvxvx&&&&&&[[[[[[[[[[[[[[[[[",
"[[[[[[[[[[[[[[[[[&&&&$#N]`'`''_'''''''_''''_''''''''/&&%dTLLLLLLLLLLLLTA%&$W]'_'_'''_''''_'''_'''']^vvvvx<&&&&&[[[[[[[[[[[[[[[[[",
"[[[[[[[[[[[[[[[[[&&&&&#N]''`'''''_''''''_'''''''''''^<&%iYLLLLLLLLLLLLPA%&#E'''''''_'''_'''''''''']^xvvvx&&&&&&[[[[[[[[[[[[[[[[[",
"[[[[[[[[[[[[[[[[[&&&&&:N]'''_''''''''_'''''''_''''''/<&%dTLLLLLLLLLLLLPA%&&!]''''''''''''''_'''_'']Qvxvvx<&&<&&[[[[[[[[[[[[[[[[[",
"[[[[[[[[[[[[[[[[[&&&&&$N]'''''_''''''''''''''_''''''(<&+dTYLLLLLLLLLLLTA%&$W]''''''''''''''''''''']/xvvvx&&&&&&[[[[[[[[[[[[[[[[[",
"[[[[[[[[[[[[[[[[[&&<&&$N]''''''''''_''''_'''''''''''/-&%iYLLLLLLLLLLLYYA%&$W''''_'''''''_''''''''']Qxvvvx<&&&&&[[[[[[[[[[[[[[[[[",
"[[[[[[[[[[[[[[[[[&&&&&$N''''''''''''_''''''_'''_''''^<&+sTLLLLLLLLLLLLYA%&$W]''''''_'''''''''''''_'^xxxvv&&&&&&[[[[[[[[[[[[[[[[[",
"[[[[[[[[[[[[[[[[[&&&&$#N]''''_'''''''''_''''''''_'''(<&+sTLLLLLLLLLLLLTA%&$W]'''''''''''''_''''''''/vvvvv-&&&&&[[[[[[[[[[[[[[[[[",
"[[[[[[[[[[[[[[[[[&&<&&#R]'''''']'']']'''''''''''''''^<&%sTYYYYTYYYYPYTTS%&$!]]'''']''']'''']'']']]]^vvvvx<&&&&&[[[[[[[[[[[[[[[[[",
"[[[[[[[[[[[[[[[[[&&&&&&M_((^(/^(//(//(''_'_'''''''']/&&%aJHHHHGGHGHHGHHC%&$N(////////(//(^^(^((^///Qlxlxk<$&&&&[[[[[[[[[[[[[[[[[",
"[[[[[[[[[[[[[[[[[&&&&&&-<<<<<2<22&<2&j'''''''_'''''_z$&&---&---------&-<&&-&<<<<<<<<<<<<<2-22<22<<<<<<<<&&<&&&&[[[[[[[[[[[[[[[[[",
"[[[[[[[[[[[[[[[[[&&&&&&&$&&&&&$$&&$&$5'''''''''''](5#&&&&%&&&&<&&&%&&&&&&&&&&&&&&&&&&&&&$&$&&$$&%$$$$&&$&&&&&&&[[[[[[[[[[[[[[[[[",
"[[[[[[[[[[[[[[[[[&&&&&&&&&&&&&&&&&&&&6'''''''''']~5#&&&&&&<&&&&&&&&&&&&&&&&&&&&&&&<&&&&&&&&<&&&&<&&&&&&&&&&&&&&[[[[[[[[[[[[[[[[[",
"[[[[[[[[[[[[[[[[[&&&&&&&&&&&&&&&&&&&$5''''''''']E&$&<&&&&&&&&&&&&&&&&&&&&&&&&&&&&&&&&&&&&&&&&&&&&&&&&&&&&<&&<&&[[[[[[[[[[[[[[[[[",
"[[[[[[[[[[[[[[[[[&&&&&&&&<&&&&&&&&&-$5_''_'''']N&$&&&&&&&-&&&&&&&&&&&&&&&&&<&&&&&&&&&&&&&&&&&&&&&&&&&&&&&&&&&&&[[[[[[[[[[[[[[[[[",
"[[[[[[[[[[[[[[[[[&&&<-&&&&&&&&&<&&&&&4_'''''']m$&&&&&&&&&&&&&&&&&&&&&&&&&&&&-<&&&&&&&&&&&&&&&&&&<&&&&&&&&&&&&-&[[[[[[[[[[[[[[[[[",
"[[[[[[[[[[[[[[[[[[[[[[[[[[[[[[[[&&&&-4'''''''b$$&&&&&&&[[[[[[[[[[[[[[[[[[[[[[[[[[[[[[[[[[[[[[[[[[[[[[[[[[[[[[[[[[[[[[[[[[[[[[[[[",
"[[[[[[[[[[[[[[[[[[[[[[[[[[[[[[[[&&&&$3_''''_z#&&&&&&&[[[[[[[[[[[[[[[[[[[[[[[[[[[[[[[[[[[[[[[[[[[[[[[[[[[[[[[[[[[[[[[[[[[[[[[[[[[",
"[[[[[[[[[[[[[[[[[[[[[[[[[[[[[[[[&&&&$3_'''_j#&&&&&&&[[[[[[[[[[[[[[[[[[[[[[[[[[[[[[[[[[[[[[[[[[[[[[[[[[[[[[[[[[[[[[[[[[[[[[[[[[[[",
"[[[[[[[[[[[[[[[[[[[[[[[[[[[[[[[[&&&&$3'']^4#&&&<&&&[[[[[[[[[[[[[[[[[[[[[[[[[[[[[[[[[[[[[[[[[[[[[[[[[[[[[[[[[[[[[[[[[[[[[[[[[[[[[",
"[[[[[[[[[[[[[[[[[[[[[[[[[[[[[[[[&&<&$3_]!2$&&&&&&&[[[[[[[[[[[[[[[[[[[[[[[[[[[[[[[[[[[[[[[[[[[[[[[[[[[[[[[[[[[[[[[[[[[[[[[[[[[[[[",
"[[[[[[[[[[[[[[[[[[[[[[[[[[[[[[[[&&&&$3'E&$&&&&&&&[[[[[[[[[[[[[[[[[[[[[[[[[[[[[[[[[[[[[[[[[[[[[[[[[[[[[[[[[[[[[[[[[[[[[[[[[[[[[[[",
"[[[[[[[[[[[[[[[[[[[[[[[[[[[[[[[[&&&&&3m&$&&&&&&&[[[[[[[[[[[[[[[[[[[[[[[[[[[[[[[[[[[[[[[[[[[[[[[[[[[[[[[[[[[[[[[[[[[[[[[[[[[[[[[[",
"[[[[[[[[[[[[[[[[[[[[[[[[[[[[[[[[&&&&&&$&&&&&&&&[[[[[[[[[[[[[[[[[[[[[[[[[[[[[[[[[[[[[[[[[[[[[[[[[[[[[[[[[[[[[[[[[[[[[[[[[[[[[[[[[",
"[[[[[[[[[[[[[[[[[[[[[[[[[[[[[[[[&&&&&&&<&&&&&[[[[[[[[[[[[[[[[[[[[[[[[[[[[[[[[[[[[[[[[[[[[[[[[[[[[[[[[[[[[[[[[[[[[[[[[[[[[[[[[[[[",
"[[[[[[[[[[[[[[[[[[[[[[[[[[[[[[[[<&&&&&&&&&<&[[[[[[[[[[[[[[[[[[[[[[[[[[[[[[[[[[[[[[[[[[[[[[[[[[[[[[[[[[[[[[[[[[[[[[[[[[[[[[[[[[[[",
"[[[[[[[[[[[[[[[[[[[[[[[[[[[[[[[[&&&&&&&&-&&[[[[[[[[[[[[[[[[[[[[[[[[[[[[[[[[[[[[[[[[[[[[[[[[[[[[[[[[[[[[[[[[[[[[[[[[[[[[[[[[[[[[[",
"[[[[[[[[[[[[[[[[[[[[[[[[[[[[[[[[&&&&&&&&&&[[[[[[[[[[[[[[[[[[[[[[[[[[[[[[[[[[[[[[[[[[[[[[[[[[[[[[[[[[[[[[[[[[[[[[[[[[[[[[[[[[[[[[",
"[[[[[[[[[[[[[[[[[[[[[[[[[[[[[[[[&&<&&&-&&[[[[[[[[[[[[[[[[[[[[[[[[[[[[[[[[[[[[[[[[[[[[[[[[[[[[[[[[[[[[[[[[[[[[[[[[[[[[[[[[[[[[[[[",
"[[[[[[[[[[[[[[[[[[[[[[[[[[[[[[[[&&&&&&&&[[[[[[[[[[[[[[[[[[[[[[[[[[[[[[[[[[[[[[[[[[[[[[[[[[[[[[[[[[[[[[[[[[[[[[[[[[[[[[[[[[[[[[[[",
"[[[[[[[[[[[[[[[[[[[[[[[[[[[[[[[[&&&&&&&[[[[[[[[[[[[[[[[[[[[[[[[[[[[[[[[[[[[[[[[[[[[[[[[[[[[[[[[[[[[[[[[[[[[[[[[[[[[[[[[[[[[[[[[[",
"[[[[[[[[[[[[[[[[[[[[[[[[[[[[[[[[&&&&&[[[[[[[[[[[[[[[[[[[[[[[[[[[[[[[[[[[[[[[[[[[[[[[[[[[[[[[[[[[[[[[[[[[[[[[[[[[[[[[[[[[[[[[[[[[",
"[[[[[[[[[[[[[[[[[[[[[[[[[[[[[[[[&&&&[[[[[[[[[[[[[[[[[[[[[[[[[[[[[[[[[[[[[[[[[[[[[[[[[[[[[[[[[[[[[[[[[[[[[[[[[[[[[[[[[[[[[[[[[[[[",
"[[[[[[[[[[[[[[[[[[[[[[[[[[[[[[[[&<&[[[[[[[[[[[[[[[[[[[[[[[[[[[[[[[[[[[[[[[[[[[[[[[[[[[[[[[[[[[[[[[[[[[[[[[[[[[[[[[[[[[[[[[[[[[[[",
"[[[[[[[[[[[[[[[[[[[[[[[[[[[[[[[[&&[[[[[[[[[[[[[[[[[[[[[[[[[[[[[[[[[[[[[[[[[[[[[[[[[[[[[[[[[[[[[[[[[[[[[[[[[[[[[[[[[[[[[[[[[[[[[[",
"[[[[[[[[[[[[[[[[[[[[[[[[[[[[[[[[&[[[[[[[[[[[[[[[[[[[[[[[[[[[[[[[[[[[[[[[[[[[[[[[[[[[[[[[[[[[[[[[[[[[[[[[[[[[[[[[[[[[[[[[[[[[[[[["
};
