/* XPM */
static char *donu16[] = {
/* columns rows colors chars-per-pixel */
"16 16 114 2 ",
"   c #191816",
".  c #1B1816",
"X  c #1B191A",
"o  c #1C1A1B",
"O  c #1D1B1B",
"+  c #1D1B1C",
"@  c #1E1B1C",
"#  c #1F1B1D",
"$  c #1E1C1E",
"%  c #1E1C1F",
"&  c #201A1B",
"*  c #201B1C",
"=  c #3D1818",
"-  c #3A1B1D",
";  c #1E1E23",
":  c #1D1E25",
">  c #1F212B",
",  c #1F222E",
"<  c #1F222F",
"1  c #21222A",
"2  c #38212B",
"3  c #252835",
"4  c #262A39",
"5  c #262A3A",
"6  c #262B3A",
"7  c #401918",
"8  c #421C1E",
"9  c #461C1E",
"0  c #4E1C1E",
"q  c #5B1C1E",
"w  c #611B1E",
"e  c #731516",
"r  c #411D24",
"t  c #591D20",
"y  c #7B1D21",
"u  c #53242D",
"i  c #472937",
"p  c #482C3C",
"a  c #582630",
"s  c #6D2835",
"d  c #7B2A39",
"f  c #7E2A3A",
"g  c #28324C",
"h  c #283453",
"j  c #2A3553",
"k  c #273858",
"l  c #28395B",
"z  c #2C395A",
"x  c #2C395B",
"c  c #313D5E",
"v  c #5C3247",
"b  c #66334A",
"n  c #68334B",
"m  c #6A344C",
"M  c #6D354F",
"N  c #344369",
"B  c #35436B",
"V  c #314471",
"C  c #304771",
"Z  c #374772",
"A  c #324975",
"S  c #384873",
"D  c #384A77",
"F  c #394A77",
"G  c #394B78",
"H  c #941A1B",
"J  c #AA1A1B",
"K  c #8D1D22",
"L  c #802B3A",
"P  c #852C3C",
"I  c #CB191A",
"U  c #EA191B",
"Y  c #F0191B",
"T  c #F4191B",
"R  c #FF191B",
"E  c #DC1F26",
"W  c #E41F26",
"Q  c #2E5184",
"!  c #3D5286",
"~  c #3D5287",
"^  c #315489",
"/  c #3B5188",
"(  c #3E548A",
")  c #3E558B",
"_  c #395C99",
"`  c #3E67AF",
"'  c #3F69B3",
"]  c #415993",
"[  c #405A9B",
"{  c #435D9B",
"}  c #415C9F",
"|  c #425DA1",
" . c #455FA0",
".. c #4764A8",
"X. c #406BB6",
"o. c #426BB6",
"O. c #4A69B2",
"+. c #4A69B3",
"@. c #4B6AB4",
"#. c #4B6BB7",
"$. c #4C6BB7",
"%. c #416FBE",
"&. c #456EBC",
"*. c #446FBD",
"=. c #4C6DB9",
"-. c #4C6DBA",
";. c #4D6DBB",
":. c #4E6FBF",
">. c #4673C6",
",. c #4F70C0",
"<. c #5071C2",
"1. c #5173C7",
"2. c #5174C8",
"3. c None",
/* pixels */
"3.3.3.3.3.3.3.3.3.3.3.3.3.3.3.3.",
"3.3.3.3.3.8 3.3.3.9 3.3.3.3.3.3.",
"3.3.3.3.- E K * y W 0 3.3.3.3.3.",
"3.3.3.3.  = w t q 7   3.3.3.3.3.",
"3.3.N ) ! ^ p J a Q ~ ( j o 3.3.",
"3.3.] 2.,.>.M R P %.<.1.V X 3.3.",
"3.3.c D Z A i H u C S F g o 3.3.",
"3.3.; z z l 2 e r k x h : 3.3.3.",
"3.3.6 -.=.*.m T L X.:.| < 3.3.3.",
"3.3.4 +.O.o.b U d ` $.[ , 3.3.3.",
"3.3.4 +.O.o.b U d ` $.[ , 3.3.3.",
"3.3.5 #.@.o.n Y f ' ;.} < 3.3.3.",
"3.3.3 { ..&.v I s _  ./ > 3.3.3.",
"3.3.3.. B G @ & # % % $ + 3.3.3.",
"3.3.3.3.1 O 3.3.3.3.3.3.3.3.3.3.",
"3.3.3.3.3.3.3.3.3.3.3.3.3.3.3.3."
};
