/* XPM */
static char *donu32[] = {
/* columns rows colors chars-per-pixel */
"32 32 221 2 ",
"   c #18120C",
".  c #101715",
"X  c #121715",
"o  c #131715",
"O  c #141715",
"+  c #1A1613",
"@  c #1B1714",
"#  c #1B1715",
"$  c #1A1815",
"%  c #1B1815",
"&  c #1B1816",
"*  c #1B1817",
"=  c #1C1817",
"-  c #111B1B",
";  c #121B1B",
":  c #131B1B",
">  c #121B1C",
",  c #141B1C",
"<  c #151B1C",
"1  c #161B1C",
"2  c #171B1C",
"3  c #1C1918",
"4  c #1C1919",
"5  c #1C1A19",
"6  c #1D1A19",
"7  c #1C1A1A",
"8  c #1D1A1A",
"9  c #1C1A1B",
"0  c #1D1A1B",
"q  c #1D1B1B",
"w  c #181B1C",
"e  c #191B1C",
"r  c #18181F",
"t  c #1C1B1C",
"y  c #1D1B1C",
"u  c #1E1B1C",
"i  c #1F1B1C",
"p  c #1D1C1D",
"a  c #221A1B",
"s  c #211B1C",
"d  c #231B1C",
"f  c #2A1A1B",
"g  c #3F1C1E",
"h  c #181820",
"j  c #1D1C20",
"k  c #1E1D20",
"l  c #1D1D22",
"z  c #1F1F23",
"x  c #1E1F24",
"c  c #1F1F24",
"v  c #1E1F26",
"b  c #211F25",
"n  c #1D2025",
"m  c #1E2029",
"M  c #1E202A",
"N  c #1F212C",
"B  c #1F2331",
"V  c #1F2332",
"C  c #212026",
"Z  c #21222A",
"A  c #20222D",
"S  c #212431",
"D  c #242632",
"F  c #282734",
"G  c #242836",
"H  c #252937",
"J  c #282937",
"K  c #252938",
"L  c #272C3D",
"P  c #282839",
"I  c #282A3C",
"U  c #2B2B3C",
"Y  c #2B2B3D",
"T  c #2B2D3F",
"R  c #2C2C3D",
"E  c #4E1113",
"W  c #451B1C",
"Q  c #461B1D",
"!  c #431C1E",
"~  c #451C1E",
"^  c #461C1E",
"/  c #491C1E",
"(  c #4A1C1E",
")  c #4D1C1E",
"_  c #4C1C1F",
"`  c #4F1C1E",
"'  c #501113",
"]  c #5D1316",
"[  c #501C1E",
"{  c #5E1C1F",
"}  c #671C20",
"|  c #691D20",
" . c #6C1D20",
".. c #7A1D21",
"X. c #282E41",
"o. c #2B2E40",
"O. c #292F43",
"+. c #2C2E40",
"@. c #2C2E41",
"#. c #232D48",
"$. c #232F4B",
"%. c #242F4A",
"&. c #242F4B",
"*. c #293043",
"=. c #283044",
"-. c #293044",
";. c #293045",
":. c #293146",
">. c #23304C",
",. c #2D3751",
"<. c #283657",
"1. c #2D3853",
"2. c #2E3853",
"3. c #27375D",
"4. c #27385F",
"5. c #273860",
"6. c #2C3E6A",
"7. c #2C3F6C",
"8. c #2D3F6D",
"9. c #34436A",
"0. c #36466F",
"q. c #3B4F7F",
"w. c #951B1E",
"e. c #971B1E",
"r. c #B5191C",
"t. c #B7191D",
"y. c #BB1B1E",
"u. c #BC1B1E",
"i. c #BD1B1E",
"p. c #BD1B1F",
"a. c #BF1B1E",
"s. c #BE1B1F",
"d. c #BF1B1F",
"f. c #891D21",
"g. c #8D1D22",
"h. c #961D22",
"j. c #9D1E23",
"k. c #9F1E23",
"l. c #B11E24",
"z. c #B31E24",
"x. c #B41E24",
"c. c #B71E24",
"v. c #C01B1E",
"b. c #C11B1E",
"n. c #C11B1F",
"m. c #C21B1F",
"M. c #C41B1F",
"N. c #C51E25",
"B. c #C41F25",
"V. c #CC1F25",
"C. c #D11F25",
"Z. c #DA1D24",
"A. c #DB1D24",
"S. c #DC1F26",
"D. c #DE1F26",
"F. c #E11F26",
"G. c #E21F26",
"H. c #E31F26",
"J. c #E41F26",
"K. c #E51F26",
"L. c #E71F26",
"P. c #E81F26",
"I. c #EA1F26",
"U. c #EA1F27",
"Y. c #ED1F27",
"T. c #EF1F27",
"R. c #F01F27",
"E. c #3B4E80",
"W. c #3D5286",
"Q. c #3F558D",
"!. c #3F568D",
"~. c #3E568E",
"^. c #3F568E",
"/. c #3F5790",
"(. c #405891",
"). c #415993",
"_. c #425FA1",
"`. c #4562A6",
"'. c #4663A8",
"]. c #4664AA",
"[. c #4764AA",
"{. c #4764AB",
"}. c #4565AC",
"|. c #4764AC",
" X c #4765AC",
".X c #4666AE",
"XX c #4865AD",
"oX c #4967B0",
"OX c #4A68B0",
"+X c #4A68B1",
"@X c #4869B2",
"#X c #4A68B2",
"$X c #4A69B2",
"%X c #4B69B2",
"&X c #4A68B3",
"*X c #4A69B3",
"=X c #4B69B3",
"-X c #4A69B4",
";X c #4B69B4",
":X c #496AB4",
">X c #496AB5",
",X c #4B6AB4",
"<X c #496BB7",
"1X c #4B6AB6",
"2X c #4A6BB6",
"3X c #4B6BB6",
"4X c #4B6BB7",
"5X c #4C6AB5",
"6X c #4C6BB7",
"7X c #4C6BB8",
"8X c #4A6CB8",
"9X c #4A6CB9",
"0X c #4A6DB9",
"qX c #4B6DBA",
"wX c #4C6CB8",
"eX c #4C6CB9",
"rX c #4D6DBA",
"tX c #4D6EBD",
"yX c #4E6FBE",
"uX c #5072C4",
"iX c None",
/* pixels */
"iXiXiXiXiXiXiXiXiXiXiX: iXiXiXiXiXiXiXiX1 w iXiXiXiXiXiXiXiXiXiX",
"iXiXiXiXiXiXiXiXiXiX) k.! - iXiXiXiX; ` l.{ iXiXiXiXiXiXiXiXiXiX",
"iXiXiXiXiXiXiXiXiXs B.R.S. .e iXiXt ..F.T.V.d iXiXiXiXiXiXiXiXiX",
"iXiXiXiXiXiXiXiXiXu h.J.U.Y.} i s | R.U.D.f.y iXiXiXiXiXiXiXiXiX",
"iXiXiXiXiXiXiXiXiXiX2 _ j.C.` x.c./ N.g.g , iXiXiXiXiXiXiXiXiXiX",
"iXiXiXy 7 # % % % % $ o X f u ~ ^ t a . O % % % % % 4 q y iXiXiX",
"iXiXiX8 Z :.-.-.-.-.-.-.;.n W ( ( Q c =.-.-.-.-.-.O.S l q iXiXiX",
"iXiXiX@ 1.tX1X1X1X1X1X1X9Xo.v.P.P.m.Y <X4X1X1X1X3X-X7.V 6 iXiXiX",
"iXiXiX@ ,.eX+X+X+X+X+X&X>XT u.H.H.s.U @X$X+X+X+X*XoX6.B 6 iXiXiX",
"iXiXiX@ ,.wX+X+X+X+X+X#X:XT y.G.G.p.U @X$X+X+X+X$XoX6.B 6 iXiXiX",
"iXiXiX@ 2.yX6X6X6X6X6X7XqX+.b.I.I.M.R 8XwX6X6X6XwX1X8.V 6 iXiXiX",
"iXiXiX& -.).!.!.!.!.!.^./.J w.z.z.e.F ~.^.!.!.!.^.Q.<.N 8 iXiXiX",
"iXiXiXy 0 = @ @ @ @ @ @ @ 8 < > > , q @ @ @ @ @ @ % 5 y y iXiXiX",
"iXiXiXiX8 x %.&.%.%.%.%.>.h E ] ] ' r $.%.%.%.%.%.#.v 8 iXiXiXiX",
"iXiXiXiX* G [. X{.{.{.|..XI r.A.Z.t.P }. X{.{.XX_.5.M 6 iXiXiXiX",
"iXiXiXiX* H %X,X=X=X=X;X2Xo.i.J.K.d.Y :X,X=X=X5X'.3.m 6 iXiXiXiX",
"iXiXiXiX* H OX$X+X+X+X#X:XT y.G.G.p.U @X$X+X+X=X`.3.m 6 iXiXiXiX",
"iXiXiXiX* H OX$X+X+X+X#X:XT y.G.G.p.U @X$X+X+X=X`.3.m 6 iXiXiXiX",
"iXiXiXiX* H OX$X+X+X+X#X:XT y.G.G.p.U @X$X+X+X=X`.3.m 6 iXiXiXiX",
"iXiXiXiX* H OX$X+X+X+X#X:XT y.G.G.p.U @X$X+X+X=X`.3.m 6 iXiXiXiX",
"iXiXiXiX* H OX$X+X+X+X#X:XT y.G.G.p.U @X$X+X+X=X`.3.m 6 iXiXiXiX",
"iXiXiXiX* H OX$X+X+X+X#X:XT y.G.G.p.U @X$X+X+X=X`.3.m 6 iXiXiXiX",
"iXiXiXiX* H OX$X+X+X+X#X:XT y.G.G.p.U @X$X+X+X=X`.3.m 6 iXiXiXiX",
"iXiXiXiX* H OX$X#X+X+X#X:XT u.H.H.s.U @X$X+X+X;X`.3.m 6 iXiXiXiX",
"iXiXiXiX* K ,X4X1X=X+X#X0X@.a.L.L.n.Y <X4X1X1X7X].4.m 6 iXiXiXiX",
"iXiXiXiX0 z *.-.L E.wXrX(.C W [ [ Q b =.-.-.-.-.X.A j q iXiXiXiX",
"iXiXiXiXiX0 % %   9.uXW.k 3 1 , , 1 9 % % % % % & 6 q y iXiXiXiX",
"iXiXiXiXiXiXiXiX+ 0.q.4 3 iXiXiXiXiXiXiXiXiXiXiXiXiXiXiXiXiXiXiX",
"iXiXiXiXiXiXiXiX8 D p 4 iXiXiXiXiXiXiXiXiXiXiXiXiXiXiXiXiXiXiXiX",
"iXiXiXiXiXiXiXiXy 4 0 iXiXiXiXiXiXiXiXiXiXiXiXiXiXiXiXiXiXiXiXiX",
"iXiXiXiXiXiXiXiXy y iXiXiXiXiXiXiXiXiXiXiXiXiXiXiXiXiXiXiXiXiXiX",
"iXiXiXiXiXiXiXiXiXiXiXiXiXiXiXiXiXiXiXiXiXiXiXiXiXiXiXiXiXiXiXiX"
};
