/* XPM */
static char *donu64[] = {
/* columns rows colors chars-per-pixel */
"64 64 220 2 ",
"   c #080D0D",
".  c #080D0E",
"X  c #0B1212",
"o  c #0A1213",
"O  c #0F1B1B",
"+  c #1A1612",
"@  c #1A1613",
"#  c #1A1714",
"$  c #1B1714",
"%  c #1B1715",
"&  c #1B1816",
"*  c #1B1817",
"=  c #1C1917",
"-  c #101A1A",
";  c #111A1A",
":  c #111B1A",
">  c #101B1B",
",  c #121B1B",
"<  c #131B1B",
"1  c #151B1B",
"2  c #161B1B",
"3  c #171B1B",
"4  c #101C1B",
"5  c #101B1C",
"6  c #111B1C",
"7  c #121B1C",
"8  c #131B1C",
"9  c #141B1C",
"0  c #151B1C",
"q  c #161B1C",
"w  c #171B1C",
"e  c #1C1918",
"r  c #1D1918",
"t  c #1C1919",
"y  c #1C1A18",
"u  c #1D1A18",
"i  c #1C1A19",
"p  c #1C1A1A",
"a  c #1D1A1A",
"s  c #1D1A1B",
"d  c #1D1B1B",
"f  c #181B1C",
"g  c #191B1C",
"h  c #1A1B1C",
"j  c #1B1B1C",
"k  c #1C1B1C",
"l  c #1D1B1C",
"z  c #1D1B1D",
"x  c #1E1B1C",
"c  c #1F1B1C",
"v  c #1E1B1D",
"b  c #181C1C",
"n  c #191C1C",
"m  c #1D1C1C",
"M  c #1E1C1D",
"N  c #1D1C1E",
"B  c #1E1C1E",
"V  c #1E1C1F",
"C  c #1E1D1F",
"Z  c #201B1C",
"A  c #201B1D",
"S  c #221B1D",
"D  c #241B1D",
"F  c #271B1C",
"G  c #2D1B1D",
"H  c #2E1B1D",
"J  c #281C1C",
"K  c #2C1C1D",
"L  c #2F1C1D",
"P  c #301C1D",
"I  c #311C1D",
"U  c #321C1D",
"Y  c #361C1D",
"T  c #3A1C1E",
"R  c #3C1C1E",
"E  c #161A26",
"W  c #181E2E",
"Q  c #1F212C",
"!  c #1E2535",
"~  c #212229",
"^  c #232630",
"/  c #232735",
"(  c #212738",
")  c #212739",
"_  c #212839",
"`  c #21283A",
"'  c #570F12",
"]  c #431C1E",
"[  c #4A1C1E",
"{  c #501C1F",
"}  c #561C1F",
"|  c #571C1F",
" . c #581D1F",
".. c #630F12",
"X. c #6A0F14",
"o. c #6B0F14",
"O. c #7A1519",
"+. c #581C20",
"@. c #6E1D21",
"#. c #701D20",
"$. c #741D20",
"%. c #771D21",
"&. c #222A40",
"*. c #293044",
"=. c #293045",
"-. c #2A3045",
";. c #2D354E",
":. c #2D354F",
">. c #2D364F",
",. c #233153",
"<. c #243151",
"1. c #243152",
"2. c #223154",
"3. c #243254",
"4. c #243356",
"5. c #243357",
"6. c #253457",
"7. c #2D3650",
"8. c #2D3751",
"9. c #253458",
"0. c #253459",
"q. c #253559",
"w. c #25355A",
"e. c #26355B",
"r. c #2F3A58",
"t. c #313D5E",
"y. c #313D5F",
"u. c #323E60",
"i. c #313F62",
"p. c #323F62",
"a. c #2E416E",
"s. c #2E416F",
"d. c #37466F",
"f. c #2F4372",
"g. c #334778",
"h. c #334879",
"j. c #34497B",
"k. c #344A7D",
"l. c #344A7E",
"z. c #8B151A",
"x. c #97151A",
"c. c #871D22",
"v. c #941E23",
"b. c #961E22",
"n. c #9A1E23",
"m. c #9D1E23",
"M. c #9F1E23",
"N. c #A41E23",
"B. c #A81E23",
"V. c #AD1E24",
"C. c #AE1E24",
"Z. c #B21E24",
"A. c #B31E24",
"S. c #B41E24",
"D. c #B51F25",
"F. c #B81E24",
"G. c #B91E24",
"H. c #C71E25",
"J. c #C91F25",
"K. c #CB1F25",
"L. c #CB1F26",
"P. c #CE1F25",
"I. c #CF1F25",
"U. c #CC1F26",
"Y. c #CF1F26",
"T. c #D21F25",
"R. c #D41F26",
"E. c #D71F26",
"W. c #DB1F26",
"Q. c #DC1F26",
"!. c #DD1F26",
"~. c #DE1F26",
"^. c #DF1F26",
"/. c #E01F26",
"(. c #E11F26",
"). c #E31F26",
"_. c #E31F27",
"`. c #E41F26",
"'. c #E51F26",
"]. c #E61F26",
"[. c #E71F27",
"{. c #E81F26",
"}. c #E91F26",
"|. c #E91F27",
" X c #EA1F27",
".X c #EB1F27",
"XX c #EC1F27",
"oX c #F01F27",
"OX c #DF2027",
"+X c #E02027",
"@X c #3C5082",
"#X c #415892",
"$X c #415893",
"%X c #425B97",
"&X c #435B98",
"*X c #4866AD",
"=X c #4866AE",
"-X c #4966AF",
";X c #4968B1",
":X c #4A68B0",
">X c #4A68B1",
",X c #4A68B2",
"<X c #4A69B2",
"1X c #4B69B2",
"2X c #4A69B3",
"3X c #4B6AB4",
"4X c #4B6AB5",
"5X c #4B6AB6",
"6X c #4C6BB6",
"7X c #4C6BB7",
"8X c #4D6CB7",
"9X c #4C6CB8",
"0X c #4C6CB9",
"qX c #4C6CBA",
"wX c #4D6DBA",
"eX c #4D6EBC",
"rX c #4E6EBC",
"tX c #4E6FBD",
"yX c #4E6FBE",
"uX c None",
/* pixels */
"uXuXuXuXuXuXuXuXuXuXuXuXuXuXuXuXuXuXuXuXuXuXuXuXuXuXuXuXuXuXuXuXuXuXuXuXuXuXuXuXuXuXuXuXuXuXuXuXuXuXuXuXuXuXuXuXuXuXuXuXuXuXuXuX",
"uXuXuXuXuXuXuXuXuXuXuXuXuXuXuXuXuXuXuXuXuXl l l uXuXuXuXuXuXuXuXuXuXuXuXuXuXuXuXl x l uXuXuXuXuXuXuXuXuXuXuXuXuXuXuXuXuXuXuXuXuX",
"uXuXuXuXuXuXuXuXuXuXuXuXuXuXuXuXuXuXuXuXl f 1 < x l uXuXuXuXuXuXuXuXuXuXuXuXl l , H q l uXuXuXuXuXuXuXuXuXuXuXuXuXuXuXuXuXuXuXuX",
"uXuXuXuXuXuXuXuXuXuXuXuXuXuXuXuXuXuXuXl f @.`.C.U f l uXuXuXuXuXuXuXuXuXuXl < { I.XXB.7 l uXuXuXuXuXuXuXuXuXuXuXuXuXuXuXuXuXuXuX",
"uXuXuXuXuXuXuXuXuXuXuXuXuXuXuXuXuXuXuXx I  XW.W.|.%.6 x uXuXuXuXuXuXuXl x 8 n.{.W.Q.[. .k uXuXuXuXuXuXuXuXuXuXuXuXuXuXuXuXuXuXuX",
"uXuXuXuXuXuXuXuXuXuXuXuXuXuXuXuXuXuXl < S.W.Q.Q.Q.).S.3 x l uXuXuXuXl k D U.^.Q.Q.Q.W.P., l uXuXuXuXuXuXuXuXuXuXuXuXuXuXuXuXuXuX",
"uXuXuXuXuXuXuXuXuXuXuXuXuXuXuXuXuXuXl w '.Q.Q.Q.Q.Q.!.E.J j l uXuXl g R _.W.Q.Q.Q.Q.W.}.l l uXuXuXuXuXuXuXuXuXuXuXuXuXuXuXuXuXuX",
"uXuXuXuXuXuXuXuXuXuXuXuXuXuXuXuXuXuXl f $. XW.Q.Q.Q.Q.W. XK x 0 9 x G oXW.Q.Q.Q.Q.!.'.+.g l uXuXuXuXuXuXuXuXuXuXuXuXuXuXuXuXuXuX",
"uXuXuXuXuXuXuXuXuXuXuXuXuXuXuXuXuXuXuXl q T F. X!.Q.Q.W.Z.7 S M.N.F < m.!.Q.W.(.`.v.Z h l uXuXuXuXuXuXuXuXuXuXuXuXuXuXuXuXuXuXuX",
"uXuXuXuXuXuXuXuXuXuXuXuXuXuXuXuXuXuXuXuXl x 5 Y b./.].`.} < F.Q.Q.J.8 ] .X XH.#.j q x l uXuXuXuXuXuXuXuXuXuXuXuXuXuXuXuXuXuXuXuX",
"uXuXuXuXuXuXuXuXuXuXuXuXuXuXuXuXuXuXuXuXuXuXl x q f | V.[ 5 T._._.(.9 L c.P > j l l uXuXuXuXuXuXuXuXuXuXuXuXuXuXuXuXuXuXuXuXuXuX",
"uXuXuXuXuXuXl l l l l l l l l l l l l l l l l l l l l < h l j k k h l k g x l l l l l l l l l l l l l l l l l l l l uXuXuXuXuXuX",
"uXuXuXuXuXuXl l l l l l l l l l l l l l l l l l l l l l l l l x x l l l l l l l l l l l l l l l l l l l l l l l l l uXuXuXuXuXuX",
"uXuXuXuXuXuXl l l e * * * * * * * * * * * * * * * & i l w 2 2 2 2 2 2 2 x p & * * * * * * * * * * * * & y a a l l l uXuXuXuXuXuX",
"uXuXuXuXuXuXl l @ $X,X2X2X2X2X2X2X2X2X2X2X2X2X2X2X5Xy.- A.!.~.~.~.~.!.U.O :.9X2X2X2X2X2X2X2X2X2X2X2X2X8Xs.0.1.r l l uXuXuXuXuXuX",
"uXuXuXuXuXuXl l @ #X:X>X>X>X>X>X>X>X>X>X>X>X>X>X>X3Xt.; Z.W.Q.Q.Q.Q.W.L.O ;.6X>X>X>X>X>X>X>X>X>X>X>X>X6Xa.9.<.r l l uXuXuXuXuXuX",
"uXuXuXuXuXuXl l @ #X:X>X>X>X>X>X>X>X>X>X>X>X>X>X>X3Xt.- Z.W.Q.Q.Q.Q.W.L.O >.7X>X>X>X>X>X>X>X>X>X>X>X>X6Xa.9.<.r l l uXuXuXuXuXuX",
"uXuXuXuXuXuXl l @ #X:X>X>X>X>X>X>X>X>X>X>X>X>X>X>X3Xt.- Z.W.Q.Q.Q.Q.W.L.O >.7X>X>X>X>X>X>X>X>X>X>X>X>X6Xa.9.<.r l l uXuXuXuXuXuX",
"uXuXuXuXuXuXl l @ #X:X>X>X>X>X>X>X>X>X>X>X>X>X>X>X3Xt.- Z.W.Q.Q.Q.Q.W.L.O >.7X>X>X>X>X>X>X>X>X>X>X>X>X6Xa.9.<.r l l uXuXuXuXuXuX",
"uXuXuXuXuXuXl l @ #X:X>X>X>X>X>X>X>X>X>X>X>X>X>X>X3Xt.- Z.W.Q.Q.Q.Q.W.L.O >.7X>X>X>X>X>X>X>X>X>X>X>X>X6Xa.9.<.r l l uXuXuXuXuXuX",
"uXuXuXuXuXuXl l @ #X:X>X>X>X>X>X>X>X>X>X>X>X>X>X>X3Xt.- Z.W.Q.Q.Q.Q.W.L.O >.7X>X>X>X>X>X>X>X>X>X>X>X>X6Xa.9.<.r l l uXuXuXuXuXuX",
"uXuXuXuXuXuXl l @ #X:X>X>X>X>X>X>X>X>X>X>X>X>X>X>X3Xt.- Z.W.Q.Q.Q.Q.W.L.O >.7X>X>X>X>X>X>X>X>X>X>X>X>X6Xa.9.<.r l l uXuXuXuXuXuX",
"uXuXuXuXuXuXl l @ #X:X>X>X>X>X>X>X>X>X>X>X>X>X>X>X3Xt.; Z.W.Q.Q.Q.Q.W.L.O :.7X>X>X>X>X>X>X>X>X>X>X>X>X6Xa.9.<.r l l uXuXuXuXuXuX",
"uXuXuXuXuXuXl l + &X9X9X9X9X9X9X9X9X9X9X9X9X9X9X9XeXi.- G.'.'.'.'.'.'.R.O 8.yX9X9X9X9X9X9X9X9X9X9X9X9XtXf.e.3.r l l uXuXuXuXuXuX",
"uXuXuXuXuXuXl l l N B B B B B B B B B B B B B B B B z l x A Z Z Z Z A c l m B B B B B B B B B B B B B B z z z l l l uXuXuXuXuXuX",
"uXuXuXuXuXuXl l l l l l l l l l l l l l l l l l l l l l l l l l l l l l l l l l l l l l l l l l l l l l l l l l l l uXuXuXuXuXuX",
"uXuXuXuXuXuXl l l l l d u u u u u u u u u u u u u u d M n b b b b b b n M d u u u u u u u u u u u u u u s l l l l l uXuXuXuXuXuX",
"uXuXuXuXuXuXuXuXuXl l Q 0.4.4.4.4.4.4.4.4.4.4.4.4.6.W   ' X.o.o.o.o.X.... E q.4.4.4.4.4.4.4.4.4.4.4.4.5.( d l uXuXuXuXuXuXuXuXuX",
"uXuXuXuXuXuXuXuXuXl l / l.h.h.h.h.h.h.h.h.h.h.h.h.j.&.X O.x.x.x.x.x.x.z.o ! k.h.h.h.h.h.h.h.h.h.h.g.4.0.) d l uXuXuXuXuXuXuXuXuX",
"uXuXuXuXuXuXuXuXuXl z -.rX3X3X3X3X3X3X3X3X3X3X3X3X9Xu.: D.OX+X+X+X+XOXY.4 7.wX3X3X3X3X3X3X3X3X3X3X;X,.0._ d l uXuXuXuXuXuXuXuXuX",
"uXuXuXuXuXuXuXuXuXl l *.0X>X>X>X>X>X>X>X>X>X>X>X>X3Xt.- Z.W.Q.Q.Q.Q.W.L.O >.7X>X>X>X>X>X>X>X>X>X>X=X,.0._ d l uXuXuXuXuXuXuXuXuX",
"uXuXuXuXuXuXuXuXuXl l *.0X>X>X>X>X>X>X>X>X>X>X>X>X3Xt.- Z.W.Q.Q.Q.Q.W.L.O >.7X>X>X>X>X>X>X>X>X>X>X=X,.0._ d l uXuXuXuXuXuXuXuXuX",
"uXuXuXuXuXuXuXuXuXl l *.0X>X>X>X>X>X>X>X>X>X>X>X>X3Xt.- Z.W.Q.Q.Q.Q.W.L.O >.7X>X>X>X>X>X>X>X>X>X>X=X,.0._ d l uXuXuXuXuXuXuXuXuX",
"uXuXuXuXuXuXuXuXuXl l *.0X>X>X>X>X>X>X>X>X>X>X>X>X3Xt.- Z.W.Q.Q.Q.Q.W.L.O >.7X>X>X>X>X>X>X>X>X>X>X=X,.0._ d l uXuXuXuXuXuXuXuXuX",
"uXuXuXuXuXuXuXuXuXl l *.0X>X>X>X>X>X>X>X>X>X>X>X>X3Xt.- Z.W.Q.Q.Q.Q.W.L.O >.7X>X>X>X>X>X>X>X>X>X>X=X,.0._ d l uXuXuXuXuXuXuXuXuX",
"uXuXuXuXuXuXuXuXuXl l *.0X>X>X>X>X>X>X>X>X>X>X>X>X3Xt.- Z.W.Q.Q.Q.Q.W.L.O >.7X>X>X>X>X>X>X>X>X>X>X=X,.0._ d l uXuXuXuXuXuXuXuXuX",
"uXuXuXuXuXuXuXuXuXl l *.0X>X>X>X>X>X>X>X>X>X>X>X>X3Xt.- Z.W.Q.Q.Q.Q.W.L.O >.7X>X>X>X>X>X>X>X>X>X>X=X,.0._ d l uXuXuXuXuXuXuXuXuX",
"uXuXuXuXuXuXuXuXuXl l *.0X>X>X>X>X>X>X>X>X>X>X>X>X3Xt.- Z.W.Q.Q.Q.Q.W.L.O >.7X>X>X>X>X>X>X>X>X>X>X=X,.0._ d l uXuXuXuXuXuXuXuXuX",
"uXuXuXuXuXuXuXuXuXl l *.0X>X>X>X>X>X>X>X>X>X>X>X>X3Xt.- Z.W.Q.Q.Q.Q.W.L.O >.7X>X>X>X>X>X>X>X>X>X>X=X,.0._ d l uXuXuXuXuXuXuXuXuX",
"uXuXuXuXuXuXuXuXuXl l *.0X>X>X>X>X>X>X>X>X>X>X>X>X3Xt.- Z.W.Q.Q.Q.Q.W.L.O >.7X>X>X>X>X>X>X>X>X>X>X=X,.0._ d l uXuXuXuXuXuXuXuXuX",
"uXuXuXuXuXuXuXuXuXl l *.0X>X>X>X>X>X>X>X>X>X>X>X>X3Xt.- Z.W.Q.Q.Q.Q.W.L.O >.7X>X>X>X>X>X>X>X>X>X>X=X,.0._ d l uXuXuXuXuXuXuXuXuX",
"uXuXuXuXuXuXuXuXuXl l *.0X>X>X>X>X>X>X>X>X>X>X>X>X3Xt.- Z.W.Q.Q.Q.Q.W.L.O >.7X>X>X>X>X>X>X>X>X>X>X=X,.0._ d l uXuXuXuXuXuXuXuXuX",
"uXuXuXuXuXuXuXuXuXl l *.0X>X>X>X>X>X>X>X>X>X>X>X>X3Xt.- Z.W.Q.Q.Q.Q.W.L.O >.7X>X>X>X>X>X>X>X>X>X>X=X,.0._ d l uXuXuXuXuXuXuXuXuX",
"uXuXuXuXuXuXuXuXuXl l *.0X>X>X>X>X>X>X>X>X>X>X>X>X3Xt.- Z.W.Q.Q.Q.Q.W.L.O >.7X>X>X>X>X>X>X>X>X>X>X=X,.0._ d l uXuXuXuXuXuXuXuXuX",
"uXuXuXuXuXuXuXuXuXl l *.0X>X>X>X>X>X>X>X>X>X>X>X>X3Xt.- Z.W.Q.Q.Q.Q.W.L.O >.7X>X>X>X>X>X>X>X>X>X>X=X,.0._ d l uXuXuXuXuXuXuXuXuX",
"uXuXuXuXuXuXuXuXuXl l *.0X>X>X>X>X>X>X>X>X>X>X>X>X3Xt.- Z.W.Q.Q.Q.Q.W.L.O >.7X>X>X>X>X>X>X>X>X>X>X=X,.0._ d l uXuXuXuXuXuXuXuXuX",
"uXuXuXuXuXuXuXuXuXl l *.0X>X>X>X>X>X>X>X>X>X>X>X>X3Xt.- Z.W.Q.Q.Q.Q.W.L.O >.7X>X>X>X>X>X>X>X>X>X>X=X,.0._ d l uXuXuXuXuXuXuXuXuX",
"uXuXuXuXuXuXuXuXuXl l *.0X>X>X>X>X>X>X>X>X>X>X>X>X3Xt.- Z.W.Q.Q.Q.Q.W.L.O >.7X>X>X>X>X>X>X>X>X>X>X=X,.0._ d l uXuXuXuXuXuXuXuXuX",
"uXuXuXuXuXuXuXuXuXl l *.0X>X>X>X>X>X>X>X>X>X>X>X>X3Xt.- Z.W.Q.Q.Q.Q.W.L.O >.7X>X>X>X>X>X>X>X>X>X>X=X,.0._ d l uXuXuXuXuXuXuXuXuX",
"uXuXuXuXuXuXuXuXuXl l *.9X>X>X>X>X>X>X>X>X>X>X>X>X3Xt.; Z.W.Q.Q.Q.Q.W.L.O ;.6X>X>X>X>X>X>X>X>X>X:X*X,.0.) d l uXuXuXuXuXuXuXuXuX",
"uXuXuXuXuXuXuXuXuXl l =.wX2X2X2X2X2X1X>X>X>X>X>X>X4Xp.; Z.W.Q.Q.Q.Q.W.K.O :.9X2X2X2X2X2X2X2X2X2X<X-X2.w.` d l uXuXuXuXuXuXuXuXuX",
"uXuXuXuXuXuXuXuXuXl l s & * * * * * d wX>X>X>X>X3X%Xl x q 1 1 1 1 1 1 0 x p & * * * * * * * * * * * a a d l l uXuXuXuXuXuXuXuXuX",
"uXuXuXuXuXuXuXuXuXl l l l l l l l l C 0X>X>X>X7X@X# z l l l l l l l l l l l l l l l l l l l l l l l l l l l l uXuXuXuXuXuXuXuXuX",
"uXuXuXuXuXuXuXuXuXl l l l l l l l l B 9X>X>XqXd.$ l l l l l l l l l l l l l l l l l l l l l l l l l l l l l l uXuXuXuXuXuXuXuXuX",
"uXuXuXuXuXuXuXuXuXuXuXuXuXuXuXuXl l v 9X:XwXr.% l l l uXuXuXuXuXuXuXuXuXuXuXuXuXuXuXuXuXuXuXuXuXuXuXuXuXuXuXuXuXuXuXuXuXuXuXuXuX",
"uXuXuXuXuXuXuXuXuXuXuXuXuXuXuXuXl l s 6X0X-.= l l l uXuXuXuXuXuXuXuXuXuXuXuXuXuXuXuXuXuXuXuXuXuXuXuXuXuXuXuXuXuXuXuXuXuXuXuXuXuX",
"uXuXuXuXuXuXuXuXuXuXuXuXuXuXuXuXl l t wX^ p l l l uXuXuXuXuXuXuXuXuXuXuXuXuXuXuXuXuXuXuXuXuXuXuXuXuXuXuXuXuXuXuXuXuXuXuXuXuXuXuX",
"uXuXuXuXuXuXuXuXuXuXuXuXuXuXuXuXl l V ~ d l l l uXuXuXuXuXuXuXuXuXuXuXuXuXuXuXuXuXuXuXuXuXuXuXuXuXuXuXuXuXuXuXuXuXuXuXuXuXuXuXuX",
"uXuXuXuXuXuXuXuXuXuXuXuXuXuXuXuXl l l l l l uXuXuXuXuXuXuXuXuXuXuXuXuXuXuXuXuXuXuXuXuXuXuXuXuXuXuXuXuXuXuXuXuXuXuXuXuXuXuXuXuXuX",
"uXuXuXuXuXuXuXuXuXuXuXuXuXuXuXuXl l l l l uXuXuXuXuXuXuXuXuXuXuXuXuXuXuXuXuXuXuXuXuXuXuXuXuXuXuXuXuXuXuXuXuXuXuXuXuXuXuXuXuXuXuX",
"uXuXuXuXuXuXuXuXuXuXuXuXuXuXuXuXl l l l uXuXuXuXuXuXuXuXuXuXuXuXuXuXuXuXuXuXuXuXuXuXuXuXuXuXuXuXuXuXuXuXuXuXuXuXuXuXuXuXuXuXuXuX",
"uXuXuXuXuXuXuXuXuXuXuXuXuXuXuXuXl l l uXuXuXuXuXuXuXuXuXuXuXuXuXuXuXuXuXuXuXuXuXuXuXuXuXuXuXuXuXuXuXuXuXuXuXuXuXuXuXuXuXuXuXuXuX",
"uXuXuXuXuXuXuXuXuXuXuXuXuXuXuXuXl l uXuXuXuXuXuXuXuXuXuXuXuXuXuXuXuXuXuXuXuXuXuXuXuXuXuXuXuXuXuXuXuXuXuXuXuXuXuXuXuXuXuXuXuXuXuX",
"uXuXuXuXuXuXuXuXuXuXuXuXuXuXuXuXl uXuXuXuXuXuXuXuXuXuXuXuXuXuXuXuXuXuXuXuXuXuXuXuXuXuXuXuXuXuXuXuXuXuXuXuXuXuXuXuXuXuXuXuXuXuXuX"
};
